HIERARCHY
ROOT Hips
{
  OFFSET -187.679 86.5976 -156.378
  CHANNELS 6 Xposition Yposition Zposition Zrotation Xrotation Yrotation
  JOINT LeftUpLeg
  {
    OFFSET 8.64259 1.95398 -2.38835
    CHANNELS 3 Zrotation Xrotation Yrotation
    JOINT LeftLeg
    {
      OFFSET 43.7702 0 0
      CHANNELS 3 Zrotation Xrotation Yrotation
      JOINT LeftFoot
      {
        OFFSET 40.6238 0 0
        CHANNELS 3 Zrotation Xrotation Yrotation
        JOINT LeftToeBase
        {
          OFFSET 12.7242 0 0
          CHANNELS 3 Zrotation Xrotation Yrotation
          End Site
          {
            OFFSET 0 0 0
          }
        }
      }
    }
  }
  JOINT RightUpLeg
  {
    OFFSET -8.2249 1.95398 -2.59336
    CHANNELS 3 Zrotation Xrotation Yrotation
    JOINT RightLeg
    {
      OFFSET 43.5653 0 0
      CHANNELS 3 Zrotation Xrotation Yrotation
      JOINT RightFoot
      {
        OFFSET 40.6238 0 0
        CHANNELS 3 Zrotation Xrotation Yrotation
        JOINT RightToeBase
        {
          OFFSET 12.7242 0 0
          CHANNELS 3 Zrotation Xrotation Yrotation
          End Site
          {
            OFFSET 0 0 0
          }
        }
      }
    }
  }
  JOINT Spine
  {
    OFFSET 0.165834 0.87714 6.61349
    CHANNELS 3 Zrotation Xrotation Yrotation
    JOINT Spine1
    {
      OFFSET 7.38963 1.71661e-005 0
      CHANNELS 3 Zrotation Xrotation Yrotation
      JOINT Spine2
      {
        OFFSET 11.9445 1.14441e-005 0
        CHANNELS 3 Zrotation Xrotation Yrotation
        JOINT Spine3
        {
          OFFSET 14.7254 4.19617e-005 0
          CHANNELS 3 Zrotation Xrotation Yrotation
          JOINT Spine4
          {
            OFFSET 10.9679 0 0
            CHANNELS 3 Zrotation Xrotation Yrotation
            JOINT RightShoulder
            {
              OFFSET 2.46616 -1.6653 3.69651
              CHANNELS 3 Zrotation Xrotation Yrotation
              JOINT RightArm
              {
                OFFSET 13.0012 0 0
                CHANNELS 3 Zrotation Xrotation Yrotation
                JOINT RightForeArm
                {
                  OFFSET 28.7848 1.52588e-005 0
                  CHANNELS 3 Zrotation Xrotation Yrotation
                  JOINT RightHand
                  {
                    OFFSET 26.5688 1.52588e-005 0
                    CHANNELS 3 Zrotation Xrotation Yrotation
                    End Site
                    {
                      OFFSET 0 0 0
                    }
                  }
                }
              }
            }
            JOINT LeftShoulder
            {
              OFFSET 2.38034 -1.29275 -3.7523
              CHANNELS 3 Zrotation Xrotation Yrotation
              JOINT LeftArm
              {
                OFFSET 16.3182 6.10352e-005 0
                CHANNELS 3 Zrotation Xrotation Yrotation
                JOINT LeftForeArm
                {
                  OFFSET 27.0901 0 0
                  CHANNELS 3 Zrotation Xrotation Yrotation
                  JOINT LeftHand
                  {
                    OFFSET 24.5451 1.52588e-005 0
                    CHANNELS 3 Zrotation Xrotation Yrotation
                    End Site
                    {
                      OFFSET 0 0 0
                    }
                  }
                }
              }
            }
            JOINT Neck
            {
              OFFSET 5.0226 -0.0266342 0
              CHANNELS 3 Zrotation Xrotation Yrotation
              JOINT Head
              {
                OFFSET 6.69363 2.86102e-005 0
                CHANNELS 3 Zrotation Xrotation Yrotation
                End Site
                {
                  OFFSET 0 0 0
                }
              }
            }
          }
        }
      }
    }
  }
}
MOTION
Frames:	7
Frame Time:	0.0416667
-226.788 96.4766 193.849 -102.314 -43.8576 -102.782 -176.113 4.68445 83.0371 -36.1939 19.1408 7.22965 77.6659 7.15927 -1.65602 9.65555 -9.83662 3.68241 171.548 14.8673 84.4124 -59.1229 1.36746 -1.35948 66.8563 -3.43497 -0.369313 27.5083 -0.748201 1.85313 0.855208 8.48281 -89.638 9.90408 1.86891 0.566837 -1.76562 1.89205 0.483994 -24.3083 1.61214 1.10243 -4.29565 1.61214 1.10241 93.4635 -44.3808 -96.3263 29.395 -23.993 -12.0457 -16.4248 -21.6684 -16.3391 -9.19114 -0.0385324 -4.74737 -88.7408 -46.1892 80.0624 -30.2668 15.8337 10.8381 7.26877 -11.9621 -17.4363 -2.62164 -0.0865017 -4.29739 -3.07649 -2.54716 -5.99335 11.7703 -2.14996 -2.55544 
-223.735 95.9391 189.593 -102.219 -45.4815 -103.609 -176.085 9.34114 83.1388 -37.299 22.8001 5.85732 75.1961 7.50843 1.55517 8.44291 -9.89234 2.73975 171.261 4.31404 82.332 -61.4317 -4.60287 -3.46387 65.9181 -3.13021 0.190954 25.9435 -1.13459 2.18702 1.11219 8.25928 -89.3411 10.3439 2.51735 1.08974 -1.32494 2.56285 0.97783 -23.8708 2.07346 1.7961 -3.8582 2.07345 1.79609 87.1763 -46.794 -105.867 26.6032 -18.3999 -7.54212 -21.991 -19.9614 -24.6518 -9.23926 -0.091458 -4.04638 -88.6004 -46.7816 80.4052 -31.7501 8.96948 15.3741 7.05245 -14.7699 -18.0998 -1.3082 -0.0632449 -1.73567 -3.46805 -4.33819 -6.95394 12.1135 -3.92542 -3.23705 
-220.124 95.0428 184.132 -100.705 -47.0019 -102.82 -176.767 16.2645 83.532 -38.5436 23.7106 5.27098 71.2937 5.81921 1.33999 9.40213 -9.55129 2.95163 171.743 -6.34951 82.784 -49.4813 -9.47584 -4.64841 69.006 -4.12264 -1.32676 29.5115 -1.46317 5.8172 1.27743 8.05841 -89.0862 10.7362 2.96513 1.54439 -0.932187 3.03021 1.41231 -23.4787 2.36398 2.36427 -3.46605 2.36398 2.36427 87.322 -46.116 -105.831 25.7672 -18.464 -11.1953 -23.659 -18.894 -28.2202 -9.44522 -0.0966516 -3.99936 -87.3877 -46.7048 82.2711 -33.1312 7.53131 15.8893 6.98362 -14.4143 -21.1042 -4.98006 -0.0835131 -4.05685 -2.14656 -5.62561 -8.11678 11.7231 -5.01907 -3.76531 
-215.081 94.3878 176.383 -97.5934 -46.8614 -99.8546 -177.939 22.2726 85.1982 -33.5597 24.5524 5.49641 64.5657 2.55028 -0.0994852 9.67809 -10.4183 4.74174 173.176 -10.3062 85.4577 -34.4526 -6.80208 -4.17332 77.7078 -7.17012 -2.0851 35.1594 -0.448931 6.17295 1.67509 7.95774 -89.0934 10.9343 3.75444 1.44973 -0.731889 3.81457 1.28288 -23.2931 3.14515 2.51173 -3.28047 3.14515 2.51173 87.4728 -44.6845 -106.033 24.6536 -17.778 -13.8277 -26.5169 -18.3074 -33.3786 -9.41499 -0.136177 -3.47483 -87.8671 -49.8918 82.1271 -28.5245 5.09106 12.5225 9.34919 -9.17287 -23.9151 -6.3231 -0.062851 -4.96658 -0.37036 -6.88062 -5.8585 12.4065 -6.72426 -5.87358 
-209.799 95.0576 168.313 -97.0281 -49.6562 -96.7771 -178.633 24.6982 87.716 -27.0559 20.8122 6.11018 65.2264 2.84391 0.306812 7.83373 -10.3476 3.02549 173.971 -7.22372 89.0794 -29.5096 -5.24729 -1.25938 80.445 -7.86113 -0.622428 31.1603 -0.704537 4.04047 1.41439 8.13719 -89.5043 10.592 3.04521 0.710729 -1.07549 3.07351 0.575911 -23.6326 2.69073 1.59364 -3.61998 2.69073 1.59365 87.53 -43.6769 -106.256 21.1137 -20.7612 -17.529 -27.2437 -17.9833 -35.0389 -7.60876 -0.0914614 -3.84432 -88.2996 -52.205 81.9015 -24.1915 6.88894 7.7365 10.3723 -6.99154 -22.5327 -4.86831 -0.12213 -2.56361 3.67254 -6.61405 -2.67523 11.4265 -6.77182 -6.20468 
-206.44 96.8222 161.952 -98.4812 -54.2851 -98.5492 -178.018 23.4981 87.4535 -28.0636 8.91099 4.18763 65.3921 2.6625 -1.13107 14.3829 -9.86909 8.27651 175.053 -3.79213 90.8659 -27.966 -0.941866 -0.282826 76.7002 -6.18712 -0.805196 27.3851 -1.35099 3.79291 0.799447 8.18586 -89.5558 10.4964 1.79634 0.722958 -1.17344 1.82641 0.643173 -23.7145 1.49601 1.22948 -3.70183 1.49599 1.22947 88.0067 -44.7012 -105.165 21.417 -20.6734 -15.9248 -24.5997 -16.5349 -31.7042 -9.28652 -0.17217 -2.9549 -90.0392 -49.8839 78.8656 -24.0733 12.3109 4.12921 8.84943 -9.86584 -15.3009 -3.42824 -0.0883139 -4.0661 2.64454 -5.75057 -3.74775 11.4835 -5.55036 -4.2688 
-203.89 97.6917 156.974 -99.8333 -56.93 -100.391 -176.467 22.0789 89.1385 -43.5156 18.8551 4.88523 68.8166 4.68492 0.041239 9.6864 -8.58209 1.39287 174.816 -0.833593 91.3376 -26.8366 0.301271 0.688853 73.7025 -4.71921 0.0730224 25.999 -1.24516 2.59918 0.368363 8.11469 -89.5356 10.6411 0.947268 0.83659 -1.02968 0.983186 0.794082 -23.5644 0.652076 1.0826 -3.55175 0.652069 1.08259 88.5899 -46.1296 -103.814 26.2455 -17.2671 -9.39844 -25.23 -17.8067 -31.4775 -10.5526 -0.169645 -3.25878 -89.3129 -45.7505 79.0781 -25.0096 17.7082 -0.578524 8.33974 -10.021 -12.4703 -2.54838 -0.0817458 -2.4954 2.76838 -4.98982 -5.99932 10.8276 -4.00275 -0.830313 
